<svg xmlns="http://www.w3.org/2000/svg" width="26" height="26" viewBox="0 0 26 26">
  <defs>
    <style>
      .cls-1 {
        fill: #f9975a;
        fill-rule: evenodd;
      }
    </style>
  </defs>
  <path id="Forma_1" data-name="Forma 1" class="cls-1" d="M1102.19,19.808A12.994,12.994,0,1,0,1106,29,12.9,12.9,0,0,0,1102.19,19.808ZM1093,40.476A11.476,11.476,0,1,1,1104.48,29,11.491,11.491,0,0,1,1093,40.476Zm6.21-15.647a0.764,0.764,0,0,0-1.08,0l-6.72,6.726-3.54-3.541a0.765,0.765,0,0,0-1.08,0,0.757,0.757,0,0,0,0,1.077l4.08,4.08a0.757,0.757,0,0,0,.54.223,0.777,0.777,0,0,0,.54-0.223l7.26-7.265A0.757,0.757,0,0,0,1099.21,24.829Z" transform="translate(-1080 -16)"/>
</svg>
