<svg xmlns="http://www.w3.org/2000/svg" width="36" height="27" viewBox="0 0 36 27">
  <defs>
    <style>
      .cls-1 {
        fill: #f9975a;
        fill-rule: evenodd;
      }
    </style>
  </defs>
  <path id="Forma_1" data-name="Forma 1" class="cls-1" d="M899.384,28.94h-3.046A10.105,10.105,0,0,0,896.989,22a8.187,8.187,0,0,0-7.7-6,9.409,9.409,0,0,0-3.319.631,17.1,17.1,0,0,0-3.833,1.963,16.327,16.327,0,0,0-3.833-1.963A9.552,9.552,0,0,0,874.985,16a8.186,8.186,0,0,0-7.7,6,10.4,10.4,0,0,0,.958,7.574h-3.7a0.561,0.561,0,0,0,0,1.122h4.346a7.369,7.369,0,0,0,.615.946c3.559,5.26,11.293,10.975,12.7,11.326V43a0.105,0.105,0,0,0,.069-0.035h0.1V42.93c1.2-.6,8.624-5.505,12.525-11.325a12.97,12.97,0,0,0,.958-1.578h3.594A0.548,0.548,0,0,0,900,29.465,0.579,0.579,0,0,0,899.384,28.94Zm-5.475,2.069c-3.628,5.434-10.3,9.818-11.738,10.764-1.471-.946-8.11-5.365-11.772-10.764-0.068-.106-0.137-0.211-0.205-0.316h5.03a0.564,0.564,0,0,0,.514-0.316l2.292-4.629,3.594,9.433a0.561,0.561,0,0,0,.513.351h0.034a0.547,0.547,0,0,0,.513-0.421l3.149-11.046,1.676,5.576a0.563,0.563,0,0,0,.445.386,0.585,0.585,0,0,0,.548-0.246l1.334-2,1.13,1.964a0.541,0.541,0,0,0,.479.281h3.08C894.319,30.377,894.114,30.692,893.909,31.009Zm1.232-2.069h-3.354l-1.4-2.455a0.545,0.545,0,0,0-.479-0.281,0.516,0.516,0,0,0-.479.246L888.262,28.2l-1.882-6.276a0.636,0.636,0,0,0-.547-0.421,0.588,0.588,0,0,0-.548.421L882.1,33.182l-3.457-9.047a0.515,0.515,0,0,0-.479-0.351,0.53,0.53,0,0,0-.513.315l-2.7,5.436h-5.442a9.667,9.667,0,0,1-1.129-7.224,7.025,7.025,0,0,1,6.639-5.155,8.889,8.889,0,0,1,2.943.562,16.505,16.505,0,0,1,3.867,2.033,0.511,0.511,0,0,0,.684,0,14.815,14.815,0,0,1,3.867-2.033,8.084,8.084,0,0,1,2.943-.562,7.059,7.059,0,0,1,6.639,5.155A9.423,9.423,0,0,1,895.141,28.94Z" transform="translate(-864 -16)"/>
</svg>
