<svg xmlns="http://www.w3.org/2000/svg" width="15" height="19" viewBox="0 0 15 19">
  <defs>
    <style>
      .cls-1 {
        fill: #0f216d;
        fill-rule: evenodd;
      }
    </style>
  </defs>
  <path class="cls-1" d="M1651.44,385.234h0.11a3.277,3.277,0,0,0,2.58-1.2c1.4-1.707,1.17-4.634,1.14-4.914a4.073,4.073,0,0,0-1.77-3.568,3.831,3.831,0,0,0-1.96-.558h-0.06a3.869,3.869,0,0,0-1.97.543,4.092,4.092,0,0,0-1.79,3.583c-0.02.28-.26,3.207,1.15,4.914A3.242,3.242,0,0,0,1651.44,385.234Zm-2.74-6.018v-0.033c0.12-2.819,1.98-3.122,2.77-3.122h0.05c0.98,0.023,2.66.456,2.77,3.122v0.033c0.01,0.027.26,2.7-.9,4.113a2.314,2.314,0,0,1-1.88.842h-0.03a2.314,2.314,0,0,1-1.88-.842C1648.44,381.928,1648.69,379.239,1648.7,379.216Zm10.29,10.873v-0.113c-0.02-.778-0.07-2.6-1.65-3.181a0.186,0.186,0,0,1-.04-0.013,10.228,10.228,0,0,1-3.03-1.488,0.464,0.464,0,0,0-.68.131,0.546,0.546,0,0,0,.12.74,10.917,10.917,0,0,0,3.33,1.637c0.85,0.33.94,1.311,0.97,2.208v0.1a7.919,7.919,0,0,1-.08,1.214,13.608,13.608,0,0,1-12.86,0,6.828,6.828,0,0,1-.08-1.216V390c0.03-.891.12-1.874,0.97-2.2a11,11,0,0,0,3.33-1.639,0.547,0.547,0,0,0,.12-0.74,0.46,0.46,0,0,0-.68-0.128,10.381,10.381,0,0,1-3.03,1.484,0.31,0.31,0,0,1-.04.013c-1.58.588-1.63,2.408-1.65,3.182v0.113a6.319,6.319,0,0,0,.18,1.781,0.544,0.544,0,0,0,.19.246,14.428,14.428,0,0,0,14.25,0,0.544,0.544,0,0,0,.19-0.246A6.589,6.589,0,0,0,1658.99,390.089Z" transform="translate(-1644 -375)"/>
</svg>
