<svg xmlns="http://www.w3.org/2000/svg" width="20" height="26" viewBox="0 0 20 26">
  <defs>
    <style>
      .cls-1 {
        fill: #f77828;
        fill-rule: evenodd;
      }
    </style>
  </defs>
  <path id="Forma_1" data-name="Forma 1" class="cls-1" d="M1623,657v-3.1c0-3.254-1.8-4.9-5.25-4.9s-4.75,1.745-4.75,5v3h-5v18h20V657h-5Zm-9-3c0-2.693.86-3.982,3.75-3.982s4.25,1.191,4.25,3.884V657h-8v-3Zm13,19.983h-18v-2.036h18v2.036ZM1609,671V658h18v13h-18Zm9-10.228a2.022,2.022,0,0,0-2,2.036v3.052a2,2,0,1,0,4,0v-3.052A2.022,2.022,0,0,0,1618,660.772Zm1,5.088a1,1,0,1,1-2,0v-3.052a1,1,0,1,1,2,0v3.052Z" transform="translate(-1608 -649)"/>
</svg>
